<svg xmlns="http://www.w3.org/2000/svg" xmlns:xlink="http://www.w3.org/1999/xlink" width="873" zoomAndPan="magnify" viewBox="0 0 654.75 271.499997" height="362" preserveAspectRatio="xMidYMid meet" version="1.0"><defs><clipPath id="50c31bc954"><path d="M 482 234 L 516 234 L 516 270.960938 L 482 270.960938 Z M 482 234 " clip-rule="nonzero"/></clipPath><clipPath id="67f1e734db"><path d="M 543 234 L 583 234 L 583 270.960938 L 543 270.960938 Z M 543 234 " clip-rule="nonzero"/></clipPath><clipPath id="0c532e478d"><path d="M 612 234 L 640 234 L 640 270.960938 L 612 270.960938 Z M 612 234 " clip-rule="nonzero"/></clipPath><clipPath id="2331f96023"><path d="M 258 234 L 297 234 L 297 270.960938 L 258 270.960938 Z M 258 234 " clip-rule="nonzero"/></clipPath><clipPath id="e74b03d590"><path d="M 332 234 L 360 234 L 360 270.960938 L 332 270.960938 Z M 332 234 " clip-rule="nonzero"/></clipPath><clipPath id="b899b00b2a"><path d="M 386 234 L 417 234 L 417 270.960938 L 386 270.960938 Z M 386 234 " clip-rule="nonzero"/></clipPath><clipPath id="42560d1355"><path d="M 446 234 L 450 234 L 450 270.960938 L 446 270.960938 Z M 446 234 " clip-rule="nonzero"/></clipPath><clipPath id="f8b1d85c7c"><path d="M 68 234 L 102 234 L 102 270.960938 L 68 270.960938 Z M 68 234 " clip-rule="nonzero"/></clipPath><clipPath id="9d6af5114f"><path d="M 129 234 L 169 234 L 169 270.960938 L 129 270.960938 Z M 129 234 " clip-rule="nonzero"/></clipPath><clipPath id="8907610626"><path d="M 198 234 L 226 234 L 226 270.960938 L 198 270.960938 Z M 198 234 " clip-rule="nonzero"/></clipPath><clipPath id="c50d6ac716"><path d="M 624 17 L 654.023438 17 L 654.023438 200 L 624 200 Z M 624 17 " clip-rule="nonzero"/></clipPath><clipPath id="12fbce5c62"><path d="M 0.476562 6 L 92 6 L 92 198 L 0.476562 198 Z M 0.476562 6 " clip-rule="nonzero"/></clipPath></defs><g clip-path="url(#50c31bc954)"><path fill="#000000" d="M 490.058594 241.234375 C 491.613281 239.769531 493.386719 238.660156 495.382812 237.910156 C 497.515625 237.101562 499.722656 236.707031 502.003906 236.726562 C 504.109375 236.71875 506.152344 237.050781 508.144531 237.730469 C 510.140625 238.429688 511.90625 239.511719 513.433594 240.980469 L 515.140625 239.289062 C 513.472656 237.582031 511.515625 236.335938 509.265625 235.546875 C 506.878906 234.707031 504.421875 234.300781 501.894531 234.316406 C 499.257812 234.289062 496.703125 234.742188 494.238281 235.671875 C 491.941406 236.546875 489.890625 237.816406 488.09375 239.488281 C 486.332031 241.125 484.976562 243.046875 484.027344 245.253906 C 483.070312 247.574219 482.589844 249.988281 482.589844 252.496094 C 482.589844 255.007812 483.070312 257.421875 484.027344 259.742188 C 484.972656 261.945312 486.320312 263.867188 488.070312 265.503906 C 489.859375 267.1875 491.90625 268.457031 494.207031 269.316406 C 496.636719 270.203125 499.140625 270.660156 501.726562 270.675781 C 504.3125 270.695312 506.824219 270.277344 509.265625 269.421875 C 511.511719 268.621094 513.46875 267.375 515.140625 265.675781 L 513.433594 263.984375 C 511.917969 265.484375 510.15625 266.589844 508.144531 267.292969 C 506.152344 267.972656 504.109375 268.300781 502.003906 268.289062 C 499.722656 268.3125 497.515625 267.921875 495.382812 267.113281 C 493.382812 266.363281 491.609375 265.253906 490.0625 263.785156 C 488.550781 262.351562 487.378906 260.679688 486.550781 258.769531 C 485.71875 256.769531 485.300781 254.6875 485.300781 252.519531 C 485.300781 250.351562 485.71875 248.269531 486.550781 246.269531 C 487.378906 244.351562 488.546875 242.675781 490.058594 241.234375 Z M 490.058594 241.234375 " fill-opacity="1" fill-rule="nonzero"/></g><g clip-path="url(#67f1e734db)"><path fill="#000000" d="M 577 239.496094 C 575.207031 237.816406 573.15625 236.542969 570.855469 235.679688 C 568.375 234.773438 565.8125 234.324219 563.167969 234.324219 C 560.527344 234.324219 557.964844 234.773438 555.484375 235.679688 C 553.171875 236.542969 551.117188 237.816406 549.316406 239.496094 C 547.558594 241.144531 546.203125 243.074219 545.242188 245.28125 C 544.769531 246.421875 544.410156 247.597656 544.167969 248.808594 C 543.925781 250.019531 543.804688 251.242188 543.804688 252.480469 C 543.804688 253.714844 543.925781 254.9375 544.167969 256.148438 C 544.410156 257.359375 544.769531 258.535156 545.242188 259.675781 C 546.199219 261.886719 547.558594 263.8125 549.316406 265.460938 C 551.113281 267.15625 553.167969 268.4375 555.484375 269.300781 C 557.964844 270.207031 560.527344 270.660156 563.167969 270.660156 C 565.8125 270.660156 568.375 270.207031 570.855469 269.300781 C 573.160156 268.441406 575.207031 267.171875 577 265.492188 C 577.441406 265.074219 577.859375 264.632812 578.253906 264.171875 C 578.652344 263.714844 579.023438 263.234375 579.371094 262.738281 C 579.71875 262.238281 580.039062 261.726562 580.332031 261.195312 C 580.628906 260.664062 580.894531 260.121094 581.136719 259.5625 C 581.375 259.003906 581.585938 258.4375 581.769531 257.855469 C 581.949219 257.277344 582.101562 256.691406 582.222656 256.097656 C 582.347656 255.5 582.4375 254.902344 582.5 254.296875 C 582.5625 253.695312 582.59375 253.089844 582.59375 252.480469 C 582.59375 251.875 582.5625 251.269531 582.5 250.667969 C 582.4375 250.0625 582.347656 249.464844 582.222656 248.867188 C 582.101562 248.273438 581.949219 247.6875 581.769531 247.109375 C 581.585938 246.527344 581.375 245.960938 581.136719 245.402344 C 580.894531 244.84375 580.628906 244.300781 580.332031 243.769531 C 580.039062 243.238281 579.71875 242.726562 579.371094 242.226562 C 579.023438 241.730469 578.652344 241.25 578.253906 240.792969 C 577.859375 240.332031 577.441406 239.890625 577 239.472656 Z M 578.496094 258.753906 C 577.671875 260.660156 576.511719 262.332031 575.015625 263.769531 C 573.496094 265.230469 571.746094 266.339844 569.777344 267.101562 C 567.648438 267.882812 565.453125 268.273438 563.183594 268.273438 C 560.917969 268.273438 558.71875 267.882812 556.589844 267.101562 C 554.605469 266.34375 552.839844 265.230469 551.296875 263.769531 C 549.785156 262.335938 548.617188 260.667969 547.789062 258.753906 C 546.957031 256.75 546.539062 254.664062 546.539062 252.492188 C 546.539062 250.324219 546.957031 248.238281 547.789062 246.234375 C 548.617188 244.328125 549.789062 242.660156 551.296875 241.234375 C 552.84375 239.773438 554.605469 238.667969 556.589844 237.910156 C 558.71875 237.121094 560.914062 236.726562 563.183594 236.726562 C 565.453125 236.726562 567.652344 237.121094 569.777344 237.910156 C 571.746094 238.667969 573.492188 239.773438 575.015625 241.234375 C 576.511719 242.667969 577.671875 244.332031 578.496094 246.234375 C 579.332031 248.238281 579.746094 250.324219 579.746094 252.492188 C 579.746094 254.664062 579.332031 256.75 578.496094 258.753906 Z M 578.496094 258.753906 " fill-opacity="1" fill-rule="nonzero"/></g><g clip-path="url(#0c532e478d)"><path fill="#000000" d="M 634.445312 253.933594 C 633.003906 253.230469 631.503906 252.675781 629.953125 252.273438 C 628.320312 251.84375 626.671875 251.441406 625.007812 251.066406 C 623.445312 250.726562 621.921875 250.261719 620.433594 249.683594 C 619.148438 249.214844 618.042969 248.480469 617.109375 247.484375 C 616.203125 246.421875 615.785156 245.195312 615.859375 243.800781 C 615.84375 242.476562 616.214844 241.269531 616.976562 240.183594 C 617.871094 238.980469 619.023438 238.121094 620.433594 237.601562 C 622.335938 236.890625 624.304688 236.566406 626.339844 236.628906 C 628.097656 236.644531 629.824219 236.894531 631.515625 237.378906 C 633.3125 237.863281 634.988281 238.613281 636.546875 239.625 L 637.558594 237.527344 C 635.976562 236.460938 634.265625 235.675781 632.421875 235.171875 C 630.4375 234.59375 628.40625 234.304688 626.339844 234.300781 C 623.75 234.210938 621.253906 234.65625 618.855469 235.636719 C 617.070312 236.363281 615.632812 237.523438 614.542969 239.117188 C 613.609375 240.546875 613.148438 242.117188 613.15625 243.824219 C 613.085938 245.484375 613.503906 247.015625 614.40625 248.410156 C 615.277344 249.625 616.386719 250.554688 617.730469 251.203125 C 619.199219 251.914062 620.722656 252.46875 622.304688 252.863281 C 623.976562 253.292969 625.625 253.695312 627.25 254.070312 C 628.78125 254.417969 630.28125 254.878906 631.742188 255.453125 C 633.027344 255.929688 634.148438 256.664062 635.09375 257.652344 C 636.015625 258.710938 636.441406 259.9375 636.375 261.335938 C 636.382812 262.644531 636.003906 263.824219 635.230469 264.875 C 634.304688 266.0625 633.136719 266.90625 631.71875 267.40625 C 629.75 268.109375 627.71875 268.425781 625.628906 268.355469 C 623.195312 268.371094 620.847656 267.933594 618.585938 267.046875 C 616.617188 266.34375 614.871094 265.277344 613.34375 263.851562 L 612.117188 265.796875 C 613.746094 267.414062 615.652344 268.582031 617.835938 269.300781 C 620.367188 270.222656 622.984375 270.675781 625.679688 270.664062 C 628.296875 270.753906 630.824219 270.320312 633.261719 269.351562 C 635.070312 268.628906 636.53125 267.46875 637.648438 265.871094 C 638.605469 264.457031 639.085938 262.894531 639.085938 261.1875 C 639.152344 259.550781 638.726562 258.054688 637.8125 256.695312 C 636.914062 255.5 635.792969 254.578125 634.445312 253.933594 Z M 634.445312 253.933594 " fill-opacity="1" fill-rule="nonzero"/></g><g clip-path="url(#2331f96023)"><path fill="#000000" d="M 296.210938 234.855469 L 293.960938 234.855469 L 277.203125 262.046875 L 260.398438 234.855469 L 258.09375 234.855469 L 258.09375 270.035156 L 261.085938 270.035156 L 261.085938 241.195312 L 276.519531 265.542969 L 277.835938 265.542969 L 293.269531 241.113281 L 293.324219 270.035156 L 296.265625 270.035156 Z M 296.210938 234.855469 " fill-opacity="1" fill-rule="nonzero"/></g><g clip-path="url(#e74b03d590)"><path fill="#000000" d="M 335.933594 267.789062 L 335.933594 253.566406 L 356.140625 253.566406 L 356.140625 251.324219 L 335.933594 251.324219 L 335.933594 237.101562 L 357.636719 237.101562 L 357.636719 234.855469 L 332.9375 234.855469 L 332.9375 270.035156 L 359.132812 270.035156 L 359.132812 267.789062 Z M 335.933594 267.789062 " fill-opacity="1" fill-rule="nonzero"/></g><g clip-path="url(#b899b00b2a)"><path fill="#000000" d="M 386.828125 234.855469 L 386.828125 237.101562 L 399.550781 237.101562 L 399.550781 270.78125 L 402.542969 270.78125 L 402.542969 237.101562 L 416.015625 237.101562 L 416.015625 234.855469 Z M 386.828125 234.855469 " fill-opacity="1" fill-rule="nonzero"/></g><g clip-path="url(#42560d1355)"><path fill="#000000" d="M 446.703125 234.855469 L 449.695312 234.855469 L 449.695312 270.78125 L 446.703125 270.78125 Z M 446.703125 234.855469 " fill-opacity="1" fill-rule="nonzero"/></g><g clip-path="url(#f8b1d85c7c)"><path fill="#000000" d="M 76.199219 241.234375 C 77.75 239.769531 79.523438 238.660156 81.519531 237.910156 C 83.652344 237.101562 85.855469 236.707031 88.136719 236.726562 C 90.238281 236.714844 92.289062 237.050781 94.28125 237.730469 C 96.28125 238.4375 98.042969 239.523438 99.570312 240.992188 L 101.277344 239.300781 C 99.609375 237.59375 97.648438 236.347656 95.394531 235.558594 C 93.011719 234.722656 90.558594 234.3125 88.03125 234.332031 C 85.394531 234.304688 82.839844 234.757812 80.375 235.6875 C 78.078125 236.558594 76.03125 237.832031 74.230469 239.503906 C 72.46875 241.140625 71.113281 243.0625 70.15625 245.265625 C 69.203125 247.589844 68.726562 250.003906 68.726562 252.511719 C 68.726562 255.019531 69.203125 257.4375 70.15625 259.757812 C 71.109375 261.957031 72.457031 263.878906 74.199219 265.519531 C 75.992188 267.199219 78.042969 268.46875 80.34375 269.328125 C 82.769531 270.21875 85.277344 270.675781 87.859375 270.691406 C 90.445312 270.710938 92.957031 270.289062 95.394531 269.433594 C 97.644531 268.640625 99.605469 267.390625 101.277344 265.691406 L 99.570312 264 C 98.054688 265.5 96.292969 266.601562 94.28125 267.308594 C 92.289062 267.988281 90.238281 268.320312 88.136719 268.304688 C 85.855469 268.328125 83.652344 267.933594 81.519531 267.128906 C 79.519531 266.378906 77.746094 265.269531 76.199219 263.800781 C 74.6875 262.367188 73.515625 260.695312 72.6875 258.785156 C 71.855469 256.785156 71.4375 254.703125 71.4375 252.535156 C 71.4375 250.367188 71.855469 248.285156 72.6875 246.285156 C 73.511719 244.363281 74.683594 242.679688 76.199219 241.234375 Z M 76.199219 241.234375 " fill-opacity="1" fill-rule="nonzero"/></g><g clip-path="url(#9d6af5114f)"><path fill="#000000" d="M 163.136719 239.496094 C 161.339844 237.816406 159.292969 236.546875 156.992188 235.679688 C 154.511719 234.777344 151.949219 234.324219 149.304688 234.324219 C 146.664062 234.324219 144.101562 234.777344 141.621094 235.679688 C 139.308594 236.550781 137.253906 237.828125 135.453125 239.519531 C 133.695312 241.167969 132.339844 243.097656 131.382812 245.304688 C 130.90625 246.445312 130.546875 247.621094 130.304688 248.832031 C 130.0625 250.042969 129.941406 251.265625 129.941406 252.5 C 129.941406 253.738281 130.0625 254.960938 130.304688 256.171875 C 130.546875 257.382812 130.90625 258.558594 131.382812 259.699219 C 132.335938 261.90625 133.695312 263.835938 135.453125 265.484375 C 137.25 267.179688 139.304688 268.457031 141.621094 269.324219 C 144.101562 270.230469 146.664062 270.683594 149.304688 270.683594 C 151.949219 270.683594 154.511719 270.230469 156.992188 269.324219 C 159.292969 268.460938 161.34375 267.191406 163.136719 265.511719 C 163.578125 265.09375 163.996094 264.65625 164.390625 264.195312 C 164.789062 263.734375 165.160156 263.257812 165.507812 262.757812 C 165.855469 262.261719 166.175781 261.746094 166.46875 261.214844 C 166.765625 260.6875 167.03125 260.140625 167.273438 259.585938 C 167.511719 259.027344 167.722656 258.457031 167.90625 257.878906 C 168.085938 257.300781 168.238281 256.714844 168.363281 256.117188 C 168.484375 255.523438 168.574219 254.925781 168.636719 254.320312 C 168.699219 253.71875 168.730469 253.113281 168.730469 252.503906 C 168.730469 251.898438 168.699219 251.292969 168.636719 250.6875 C 168.574219 250.085938 168.484375 249.484375 168.363281 248.890625 C 168.238281 248.296875 168.085938 247.710938 167.90625 247.128906 C 167.722656 246.550781 167.511719 245.984375 167.273438 245.425781 C 167.03125 244.867188 166.765625 244.324219 166.46875 243.792969 C 166.175781 243.261719 165.855469 242.75 165.507812 242.25 C 165.160156 241.753906 164.789062 241.273438 164.390625 240.8125 C 163.996094 240.351562 163.578125 239.914062 163.136719 239.496094 Z M 164.632812 258.753906 C 163.808594 260.660156 162.652344 262.332031 161.152344 263.769531 C 159.632812 265.230469 157.886719 266.339844 155.914062 267.101562 C 153.785156 267.882812 151.589844 268.273438 149.320312 268.273438 C 147.054688 268.273438 144.855469 267.882812 142.726562 267.101562 C 140.742188 266.34375 138.976562 265.230469 137.4375 263.769531 C 135.921875 262.335938 134.753906 260.667969 133.925781 258.753906 C 133.09375 256.75 132.675781 254.664062 132.675781 252.492188 C 132.675781 250.324219 133.09375 248.238281 133.925781 246.234375 C 134.753906 244.328125 135.925781 242.660156 137.4375 241.234375 C 138.980469 239.773438 140.742188 238.667969 142.726562 237.910156 C 144.855469 237.121094 147.050781 236.726562 149.320312 236.726562 C 151.589844 236.726562 153.789062 237.121094 155.914062 237.910156 C 157.882812 238.667969 159.628906 239.773438 161.152344 241.234375 C 161.71875 241.789062 162.234375 242.386719 162.710938 243.019531 C 163.183594 243.652344 163.609375 244.320312 163.984375 245.015625 C 164.359375 245.710938 164.679688 246.433594 164.945312 247.179688 C 165.214844 247.921875 165.425781 248.683594 165.578125 249.460938 C 165.734375 250.238281 165.828125 251.019531 165.867188 251.8125 C 165.902344 252.601562 165.882812 253.390625 165.800781 254.179688 C 165.722656 254.964844 165.585938 255.742188 165.390625 256.511719 C 165.191406 257.277344 164.941406 258.023438 164.632812 258.753906 Z M 164.632812 258.753906 " fill-opacity="1" fill-rule="nonzero"/></g><g clip-path="url(#8907610626)"><path fill="#000000" d="M 220.582031 253.933594 C 219.140625 253.230469 217.644531 252.675781 216.089844 252.273438 C 214.457031 251.847656 212.804688 251.441406 211.144531 251.066406 C 209.582031 250.726562 208.058594 250.265625 206.570312 249.683594 C 205.285156 249.210938 204.175781 248.480469 203.238281 247.484375 C 202.339844 246.421875 201.921875 245.191406 201.988281 243.800781 C 201.976562 242.476562 202.351562 241.269531 203.113281 240.183594 C 204.007812 238.980469 205.160156 238.121094 206.570312 237.601562 C 208.472656 236.890625 210.4375 236.566406 212.46875 236.628906 C 214.230469 236.644531 215.960938 236.894531 217.65625 237.378906 C 219.449219 237.867188 221.125 238.613281 222.683594 239.625 L 223.695312 237.527344 C 222.113281 236.460938 220.402344 235.675781 218.558594 235.171875 C 216.570312 234.59375 214.539062 234.304688 212.46875 234.300781 C 209.878906 234.214844 207.382812 234.65625 204.984375 235.636719 C 203.203125 236.367188 201.769531 237.527344 200.679688 239.117188 C 199.75 240.546875 199.285156 242.117188 199.296875 243.824219 C 199.222656 245.484375 199.640625 247.015625 200.546875 248.410156 C 201.414062 249.628906 202.519531 250.558594 203.867188 251.203125 C 205.335938 251.914062 206.859375 252.46875 208.441406 252.863281 C 210.113281 253.292969 211.761719 253.695312 213.386719 254.070312 C 214.921875 254.417969 216.417969 254.878906 217.878906 255.453125 C 219.164062 255.929688 220.28125 256.664062 221.230469 257.652344 C 222.152344 258.710938 222.578125 259.9375 222.511719 261.335938 C 222.519531 262.644531 222.140625 263.824219 221.367188 264.875 C 220.445312 266.0625 219.273438 266.90625 217.855469 267.40625 C 215.886719 268.109375 213.855469 268.425781 211.765625 268.355469 C 209.332031 268.371094 206.980469 267.933594 204.714844 267.046875 C 202.75 266.339844 201.003906 265.273438 199.476562 263.851562 L 198.253906 265.796875 C 199.886719 267.414062 201.792969 268.582031 203.972656 269.300781 C 206.507812 270.222656 209.121094 270.675781 211.816406 270.664062 C 214.433594 270.753906 216.960938 270.316406 219.398438 269.351562 C 221.207031 268.628906 222.667969 267.46875 223.785156 265.871094 C 224.742188 264.457031 225.222656 262.894531 225.222656 261.1875 C 225.292969 259.546875 224.863281 258.050781 223.941406 256.695312 C 223.050781 255.496094 221.929688 254.578125 220.582031 253.933594 Z M 220.582031 253.933594 " fill-opacity="1" fill-rule="nonzero"/></g><path fill="#000000" d="M 148.011719 197.417969 L 204.144531 51.890625 L 260.277344 197.417969 C 260.464844 197.867188 260.707031 198.277344 261.015625 198.652344 C 261.324219 199.027344 261.679688 199.347656 262.085938 199.613281 C 262.488281 199.882812 262.925781 200.082031 263.390625 200.21875 C 263.855469 200.355469 264.328125 200.417969 264.816406 200.414062 L 285.613281 200.414062 C 285.996094 200.425781 286.375 200.394531 286.746094 200.316406 C 287.121094 200.238281 287.480469 200.113281 287.820312 199.945312 C 288.164062 199.777344 288.480469 199.570312 288.773438 199.324219 C 289.066406 199.078125 289.324219 198.800781 289.542969 198.488281 C 289.765625 198.179688 289.949219 197.84375 290.089844 197.492188 C 290.226562 197.136719 290.324219 196.769531 290.371094 196.390625 C 290.421875 196.011719 290.421875 195.632812 290.378906 195.253906 C 290.332031 194.871094 290.242188 194.503906 290.105469 194.148438 L 217.730469 19.207031 C 217.539062 18.769531 217.292969 18.371094 216.984375 18.007812 C 216.675781 17.644531 216.324219 17.332031 215.921875 17.074219 C 215.523438 16.8125 215.09375 16.617188 214.636719 16.484375 C 214.179688 16.351562 213.714844 16.289062 213.238281 16.292969 L 195.058594 16.292969 C 194.582031 16.289062 194.117188 16.351562 193.660156 16.484375 C 193.203125 16.617188 192.773438 16.8125 192.375 17.070312 C 191.972656 17.328125 191.621094 17.640625 191.3125 18.003906 C 191.003906 18.367188 190.757812 18.769531 190.566406 19.207031 L 118.179688 194.164062 C 118.042969 194.519531 117.949219 194.886719 117.90625 195.265625 C 117.859375 195.644531 117.863281 196.023438 117.910156 196.402344 C 117.960938 196.78125 118.054688 197.148438 118.195312 197.503906 C 118.335938 197.859375 118.515625 198.195312 118.738281 198.503906 C 118.960938 198.8125 119.21875 199.09375 119.507812 199.339844 C 119.800781 199.585938 120.117188 199.792969 120.460938 199.960938 C 120.804688 200.128906 121.164062 200.253906 121.535156 200.332031 C 121.910156 200.410156 122.289062 200.441406 122.667969 200.429688 L 143.46875 200.429688 C 143.953125 200.433594 144.429688 200.371094 144.898438 200.234375 C 145.363281 200.097656 145.800781 199.894531 146.203125 199.625 C 146.609375 199.355469 146.96875 199.035156 147.273438 198.660156 C 147.582031 198.28125 147.828125 197.871094 148.011719 197.417969 Z M 148.011719 197.417969 " fill-opacity="1" fill-rule="nonzero"/><path fill="#000000" d="M 446.296875 16.308594 L 426.890625 16.308594 C 426.582031 16.300781 426.269531 16.320312 425.964844 16.375 C 425.65625 16.425781 425.359375 16.507812 425.066406 16.617188 C 424.777344 16.726562 424.5 16.863281 424.234375 17.03125 C 423.96875 17.195312 423.726562 17.382812 423.5 17.597656 C 423.273438 17.8125 423.066406 18.042969 422.886719 18.296875 C 422.707031 18.550781 422.550781 18.820312 422.421875 19.101562 C 422.292969 19.386719 422.195312 19.679688 422.125 19.984375 C 422.054688 20.285156 422.015625 20.59375 422.003906 20.90625 L 422.003906 153.933594 L 324.667969 18.335938 C 324.195312 17.695312 323.597656 17.191406 322.882812 16.835938 C 322.167969 16.476562 321.410156 16.300781 320.613281 16.308594 L 304.894531 16.308594 C 304.582031 16.300781 304.273438 16.320312 303.96875 16.375 C 303.660156 16.425781 303.359375 16.507812 303.070312 16.617188 C 302.777344 16.726562 302.5 16.863281 302.238281 17.03125 C 301.972656 17.195312 301.726562 17.382812 301.5 17.597656 C 301.273438 17.8125 301.070312 18.042969 300.890625 18.296875 C 300.707031 18.550781 300.554688 18.820312 300.425781 19.101562 C 300.296875 19.386719 300.199219 19.679688 300.128906 19.984375 C 300.058594 20.285156 300.015625 20.59375 300.007812 20.90625 L 300.007812 195.832031 C 300.015625 196.144531 300.058594 196.449219 300.128906 196.753906 C 300.199219 197.058594 300.296875 197.351562 300.425781 197.632812 C 300.554688 197.917969 300.707031 198.1875 300.890625 198.441406 C 301.070312 198.691406 301.273438 198.925781 301.5 199.140625 C 301.726562 199.351562 301.972656 199.542969 302.238281 199.707031 C 302.5 199.871094 302.777344 200.011719 303.070312 200.121094 C 303.359375 200.230469 303.660156 200.3125 303.96875 200.363281 C 304.273438 200.414062 304.582031 200.4375 304.894531 200.429688 L 324.300781 200.429688 C 324.613281 200.4375 324.921875 200.417969 325.230469 200.363281 C 325.535156 200.3125 325.835938 200.234375 326.128906 200.121094 C 326.417969 200.011719 326.695312 199.875 326.960938 199.710938 C 327.226562 199.542969 327.472656 199.355469 327.699219 199.140625 C 327.925781 198.929688 328.128906 198.695312 328.3125 198.441406 C 328.492188 198.1875 328.648438 197.917969 328.777344 197.636719 C 328.90625 197.351562 329.003906 197.058594 329.074219 196.753906 C 329.144531 196.453125 329.1875 196.144531 329.195312 195.832031 L 329.195312 64.898438 L 426.238281 198.421875 C 426.714844 199.058594 427.308594 199.554688 428.019531 199.910156 C 428.734375 200.261719 429.488281 200.433594 430.28125 200.429688 L 446.296875 200.429688 C 446.609375 200.4375 446.917969 200.417969 447.226562 200.363281 C 447.535156 200.3125 447.832031 200.234375 448.125 200.121094 C 448.417969 200.011719 448.695312 199.875 448.957031 199.710938 C 449.222656 199.542969 449.46875 199.355469 449.695312 199.140625 C 449.921875 198.929688 450.128906 198.695312 450.308594 198.441406 C 450.492188 198.1875 450.644531 197.917969 450.773438 197.636719 C 450.902344 197.351562 451 197.058594 451.074219 196.753906 C 451.144531 196.453125 451.183594 196.144531 451.195312 195.832031 L 451.195312 20.90625 C 451.183594 20.59375 451.144531 20.285156 451.074219 19.980469 C 451 19.679688 450.902344 19.386719 450.773438 19.101562 C 450.644531 18.816406 450.492188 18.546875 450.308594 18.292969 C 450.128906 18.042969 449.921875 17.808594 449.695312 17.59375 C 449.46875 17.382812 449.222656 17.191406 448.960938 17.027344 C 448.695312 16.863281 448.417969 16.726562 448.125 16.613281 C 447.832031 16.503906 447.535156 16.421875 447.226562 16.371094 C 446.917969 16.320312 446.609375 16.300781 446.296875 16.308594 Z M 446.296875 16.308594 " fill-opacity="1" fill-rule="nonzero"/><path fill="#000000" d="M 602.828125 18.554688 L 467.957031 18.554688 C 467.648438 18.546875 467.34375 18.574219 467.039062 18.628906 C 466.734375 18.679688 466.441406 18.765625 466.152344 18.878906 C 465.867188 18.992188 465.59375 19.128906 465.332031 19.296875 C 465.070312 19.464844 464.832031 19.652344 464.609375 19.867188 C 464.386719 20.082031 464.1875 20.316406 464.011719 20.570312 C 463.835938 20.820312 463.683594 21.089844 463.5625 21.371094 C 463.4375 21.65625 463.34375 21.949219 463.277344 22.25 C 463.210938 22.550781 463.175781 22.855469 463.167969 23.164062 L 463.167969 38.644531 C 463.175781 38.953125 463.210938 39.257812 463.277344 39.558594 C 463.34375 39.859375 463.4375 40.152344 463.5625 40.433594 C 463.683594 40.71875 463.835938 40.984375 464.011719 41.238281 C 464.1875 41.492188 464.386719 41.726562 464.609375 41.941406 C 464.832031 42.15625 465.070312 42.34375 465.332031 42.511719 C 465.59375 42.679688 465.867188 42.816406 466.152344 42.929688 C 466.441406 43.042969 466.734375 43.125 467.039062 43.179688 C 467.34375 43.234375 467.648438 43.257812 467.957031 43.253906 L 520.800781 43.253906 L 520.800781 195.1875 C 520.8125 195.496094 520.855469 195.796875 520.929688 196.09375 C 521.003906 196.394531 521.105469 196.683594 521.234375 196.960938 C 521.363281 197.238281 521.519531 197.5 521.699219 197.75 C 521.878906 197.996094 522.082031 198.226562 522.308594 198.433594 C 522.535156 198.640625 522.777344 198.824219 523.039062 198.988281 C 523.300781 199.148438 523.574219 199.28125 523.863281 199.386719 C 524.152344 199.496094 524.445312 199.574219 524.75 199.621094 C 525.050781 199.671875 525.359375 199.691406 525.664062 199.679688 L 545.125 199.679688 C 545.429688 199.691406 545.734375 199.671875 546.039062 199.621094 C 546.339844 199.574219 546.636719 199.496094 546.925781 199.386719 C 547.210938 199.28125 547.488281 199.148438 547.75 198.988281 C 548.011719 198.828125 548.253906 198.640625 548.480469 198.433594 C 548.703125 198.226562 548.90625 197.996094 549.089844 197.75 C 549.269531 197.5 549.425781 197.238281 549.554688 196.960938 C 549.683594 196.683594 549.785156 196.394531 549.859375 196.09375 C 549.929688 195.796875 549.976562 195.496094 549.988281 195.1875 L 549.988281 43.253906 L 602.828125 43.253906 C 603.136719 43.257812 603.445312 43.234375 603.746094 43.179688 C 604.050781 43.125 604.347656 43.039062 604.632812 42.929688 C 604.921875 42.816406 605.195312 42.675781 605.453125 42.507812 C 605.714844 42.34375 605.957031 42.152344 606.175781 41.9375 C 606.398438 41.722656 606.597656 41.492188 606.777344 41.238281 C 606.953125 40.984375 607.101562 40.714844 607.226562 40.433594 C 607.347656 40.152344 607.445312 39.859375 607.511719 39.558594 C 607.578125 39.257812 607.613281 38.953125 607.621094 38.644531 L 607.621094 23.195312 C 607.613281 22.886719 607.582031 22.578125 607.515625 22.277344 C 607.449219 21.972656 607.355469 21.679688 607.234375 21.394531 C 607.109375 21.109375 606.960938 20.839844 606.785156 20.585938 C 606.609375 20.332031 606.410156 20.097656 606.1875 19.878906 C 605.964844 19.664062 605.722656 19.472656 605.464844 19.304688 C 605.203125 19.136719 604.929688 18.996094 604.640625 18.882812 C 604.351562 18.769531 604.054688 18.683594 603.75 18.628906 C 603.445312 18.574219 603.140625 18.550781 602.828125 18.554688 Z M 602.828125 18.554688 " fill-opacity="1" fill-rule="nonzero"/><g clip-path="url(#c50d6ac716)"><path fill="#000000" d="M 649.160156 17.804688 L 629.699219 17.804688 C 629.390625 17.796875 629.082031 17.816406 628.777344 17.863281 C 628.472656 17.914062 628.175781 17.992188 627.886719 18.101562 C 627.597656 18.210938 627.324219 18.34375 627.0625 18.507812 C 626.796875 18.671875 626.554688 18.855469 626.328125 19.066406 C 626.101562 19.277344 625.898438 19.507812 625.71875 19.757812 C 625.539062 20.007812 625.382812 20.273438 625.257812 20.554688 C 625.128906 20.835938 625.027344 21.128906 624.957031 21.429688 C 624.886719 21.730469 624.84375 22.03125 624.832031 22.339844 L 624.832031 195.144531 C 624.84375 195.453125 624.886719 195.757812 624.957031 196.058594 C 625.027344 196.359375 625.128906 196.648438 625.253906 196.929688 C 625.382812 197.210938 625.539062 197.476562 625.71875 197.726562 C 625.898438 197.976562 626.101562 198.207031 626.328125 198.417969 C 626.554688 198.628906 626.796875 198.816406 627.0625 198.976562 C 627.324219 199.140625 627.597656 199.273438 627.886719 199.382812 C 628.175781 199.492188 628.472656 199.570312 628.777344 199.621094 C 629.082031 199.671875 629.390625 199.691406 629.699219 199.679688 L 649.160156 199.679688 C 649.46875 199.691406 649.773438 199.671875 650.078125 199.621094 C 650.382812 199.570312 650.679688 199.492188 650.96875 199.382812 C 651.257812 199.273438 651.535156 199.140625 651.796875 198.976562 C 652.058594 198.816406 652.304688 198.628906 652.527344 198.417969 C 652.753906 198.207031 652.957031 197.976562 653.136719 197.726562 C 653.320312 197.476562 653.472656 197.210938 653.601562 196.929688 C 653.730469 196.648438 653.828125 196.359375 653.898438 196.058594 C 653.972656 195.757812 654.011719 195.453125 654.023438 195.144531 L 654.023438 22.339844 C 654.011719 22.03125 653.972656 21.730469 653.898438 21.429688 C 653.828125 21.128906 653.730469 20.835938 653.601562 20.554688 C 653.472656 20.273438 653.320312 20.007812 653.136719 19.757812 C 652.957031 19.507812 652.753906 19.277344 652.527344 19.066406 C 652.304688 18.855469 652.058594 18.671875 651.796875 18.507812 C 651.535156 18.34375 651.257812 18.210938 650.96875 18.101562 C 650.679688 17.992188 650.382812 17.914062 650.078125 17.863281 C 649.773438 17.816406 649.46875 17.796875 649.160156 17.804688 Z M 649.160156 17.804688 " fill-opacity="1" fill-rule="nonzero"/></g><path fill="#d9663d" d="M 139.9375 94.335938 C 132.453125 135.199219 116.105469 210.148438 63.59375 208.585938 C 141.882812 192.121094 119.078125 72.628906 162.898438 23.058594 C 178.390625 4.558594 195.304688 0.5625 213.113281 13.511719 C 168.136719 -7.191406 147.164062 59.734375 139.9375 94.335938 Z M 99.992188 181.246094 C 139.457031 127.257812 122.203125 23.597656 188.234375 0.121094 C 85.140625 18.570312 149.769531 196.820312 36.753906 209.6875 C 46.917969 212.738281 84.339844 204.8125 99.992188 181.246094 Z M 99.992188 181.246094 " fill-opacity="1" fill-rule="nonzero"/><g clip-path="url(#12fbce5c62)"><path fill="#000000" d="M 36.917969 8.226562 C 36.839844 7.964844 36.6875 7.75 36.46875 7.582031 C 36.25 7.410156 36 7.328125 35.722656 7.328125 L 2.492188 6.804688 C 2.324219 6.808594 2.160156 6.832031 2 6.871094 C 1.835938 6.914062 1.683594 6.976562 1.539062 7.054688 C 1.390625 7.136719 1.253906 7.230469 1.132812 7.34375 C 1.007812 7.453125 0.898438 7.578125 0.804688 7.714844 C 0.710938 7.855469 0.636719 8 0.578125 8.15625 C 0.519531 8.3125 0.480469 8.472656 0.460938 8.640625 C 0.4375 8.804688 0.4375 8.96875 0.457031 9.136719 C 0.476562 9.300781 0.515625 9.460938 0.574219 9.617188 C 3.746094 18.660156 64.867188 192.34375 66.042969 196.160156 C 66.085938 196.320312 66.363281 197.441406 67.097656 197.660156 C 67.605469 197.816406 68.113281 197.464844 68.59375 197.121094 C 69.683594 196.46875 70.730469 195.757812 71.738281 194.988281 C 74.3125 192.742188 72.277344 194.664062 75.480469 191.804688 C 77.769531 189.785156 78.914062 188.8125 79.96875 187.734375 C 81.023438 186.65625 82.269531 185.488281 83.808594 183.753906 L 84.085938 183.4375 C 84.925781 182.464844 85.53125 181.785156 85.652344 181.640625 C 86.292969 180.894531 86.398438 180.625 87.753906 178.871094 C 89.191406 176.972656 89.378906 176.851562 90.222656 175.660156 C 90.972656 174.597656 91.535156 173.707031 91.863281 173.148438 " fill-opacity="1" fill-rule="nonzero"/></g></svg>